<svg xmlns="http://www.w3.org/2000/svg" viewBox="0 0 512 512">
  <defs>
    <linearGradient id="bg" x1="0" y1="0" x2="1" y2="1"><stop offset="0" stop-color="#22a884"/><stop offset="1" stop-color="#0c5443"/></linearGradient>
    <linearGradient id="lf" x1="0" y1="0" x2="0" y2="1"><stop offset="0" stop-color="#ffffff"/><stop offset="1" stop-color="#d2f1e3"/></linearGradient>
  </defs>
  <rect width="512" height="512" rx="112" fill="url(#bg)"/>
  <circle cx="256" cy="256" r="196" fill="#ffffff" opacity="0.07"/>
  <g transform="translate(256 250)">
    <path d="M-10,-124 C-40,-138 -78,-128 -96,-104 C-128,-108 -156,-84 -152,-50 C-172,-30 -172,6 -152,26 C-160,58 -140,90 -106,96 C-92,124 -50,132 -24,112 C-18,118 -12,120 -10,120 Z" fill="url(#lf)"/>
    <path d="M10,-124 C40,-138 78,-128 96,-104 C128,-108 156,-84 152,-50 C172,-30 172,6 152,26 C160,58 140,90 106,96 C92,124 50,132 24,112 C18,118 12,120 10,120 Z" fill="url(#lf)"/>
    <g fill="none" stroke="#178a6e" stroke-width="11" stroke-linecap="round"><path d="M-26,-100 C-80,-60 -100,10 -44,100"/><path d="M26,-100 C80,-60 100,10 44,100"/></g>
    <g fill="none" stroke="#178a6e" stroke-width="8" stroke-linecap="round" opacity="0.9">
      <path d="M-62,-64 C-92,-58 -114,-40 -126,-16"/><path d="M-78,-8 C-108,2 -128,22 -134,48"/><path d="M-62,44 C-90,56 -106,74 -108,92"/>
      <path d="M62,-64 C92,-58 114,-40 126,-16"/><path d="M78,-8 C108,2 128,22 134,48"/><path d="M62,44 C90,56 106,74 108,92"/>
    </g>
    <path d="M0,120 C2,150 -10,172 -30,188" fill="none" stroke="#ffffff" stroke-width="14" stroke-linecap="round"/>
  </g>
</svg>
